<svg xmlns="http://www.w3.org/2000/svg" width="1440" height="1120" viewBox="0 0 1440 1120" font-family="-apple-system,'Segoe UI',Roboto,'Noto Sans',Arial,sans-serif">
<title>Концепция C — Тёплая настольная игра</title>
<defs>
  <style>
    .sans{font-family:-apple-system,'Segoe UI',Roboto,'Noto Sans',Arial,sans-serif}
  </style>
  <clipPath id="c-home-clip"><rect x="60" y="150" width="390" height="844" rx="28"/></clipPath>
  <clipPath id="c-puzzle-clip"><rect x="490" y="150" width="390" height="844" rx="28"/></clipPath>
  <g id="c-icon-back"><path d="M15 5 L9 12 L15 19" fill="none" stroke="#26231D" stroke-width="2.4" stroke-linecap="round" stroke-linejoin="round"/></g>
  <g id="c-icon-chev-up"><path d="M6 15 L12 9 L18 15" fill="none" stroke="#26231D" stroke-width="2.6" stroke-linecap="round" stroke-linejoin="round"/></g>
  <g id="c-icon-chev-down"><path d="M6 9 L12 15 L18 9" fill="none" stroke="#26231D" stroke-width="2.6" stroke-linecap="round" stroke-linejoin="round"/></g>
  <g id="c-icon-grip-v">
    <circle cx="0" cy="-8" r="2.2" fill="#26231D"/><circle cx="0" cy="0" r="2.2" fill="#26231D"/><circle cx="0" cy="8" r="2.2" fill="#26231D"/>
  </g>
  <g id="c-icon-mountain"><path d="M1 11 L5 4.5 L7.5 8 L9.5 5 L13 11 Z" fill="#FFFFFF"/></g>
  <g id="c-icon-gear">
    <circle cx="12" cy="12" r="5.5" fill="none" stroke="#26231D" stroke-width="1.6"/><circle cx="12" cy="12" r="1.3" fill="#26231D"/>
    <g stroke="#26231D" stroke-width="1.6" stroke-linecap="round">
      <line x1="18" y1="12" x2="20.5" y2="12"/><line x1="6" y1="12" x2="3.5" y2="12"/>
      <line x1="12" y1="6" x2="12" y2="3.5"/><line x1="12" y1="18" x2="12" y2="20.5"/>
    </g>
  </g>
  <g id="c-icon-archive"><rect x="4" y="9" width="16" height="10" rx="1.5" fill="none" stroke="#26231D" stroke-width="1.6"/><line x1="4" y1="13" x2="20" y2="13" stroke="#26231D" stroke-width="1.6"/></g>
</defs>

<rect x="0" y="0" width="1440" height="1120" fill="#FAF7F1"/>

<text x="60" y="50" class="sans" font-size="16" font-weight="700" letter-spacing="2" fill="#2F4B44">КОНЦЕПЦИЯ C</text>
<text x="60" y="92" class="sans" font-size="34" font-weight="800" fill="#26231D">Тёплая настольная игра</text>
<text x="60" y="114" class="sans" font-size="13" fill="#26231D" opacity="0.55">«По порядку!» · Home (Ready) + Puzzle (Playing) · дизайн-борд, светлая тема + фрагмент тёмной</text>

<text x="255" y="142" class="sans" font-size="12" font-weight="700" letter-spacing="2" text-anchor="middle" fill="#2F4B44">HOME · READY</text>
<text x="685" y="142" class="sans" font-size="12" font-weight="700" letter-spacing="2" text-anchor="middle" fill="#2F4B44">PUZZLE · PLAYING</text>

<!-- ============ HOME PHONE ============ -->
<rect x="60" y="150" width="390" height="844" rx="28" fill="#F3ECDF" stroke="#26231D" stroke-opacity="0.2" stroke-width="1.5"/>
<g clip-path="url(#c-home-clip)">
  <!-- ambient board-texture hexes -->
  <polygon points="300,570 412.6,635 412.6,765 300,830 187.4,765 187.4,635" fill="#5C7A5E" opacity="0.05"/>
  <polygon points="150,730 227.9,775 227.9,865 150,910 72.1,865 72.1,775" fill="#C1633D" opacity="0.05"/>

  <text x="84" y="200" class="sans" font-size="22" font-weight="800" fill="#26231D">По порядку!</text>
  <circle cx="414" cy="194" r="17" fill="#DCE3D2"/><use href="#c-icon-gear" x="402" y="182"/>
  <circle cx="372" cy="194" r="17" fill="#F0DCCB"/><use href="#c-icon-archive" x="360" y="182"/>

  <text x="84" y="228" class="sans" font-size="14" fill="#26231D" opacity="0.72">Суббота, 29 августа 2026</text>

  <!-- hex day token -->
  <polygon points="132,248 177.03,274 177.03,326 132,352 86.97,326 86.97,274" fill="#C79A3C"/>
  <text x="132" y="313" class="sans" font-size="44" font-weight="800" text-anchor="middle" fill="#26231D">1</text>
  <text x="200" y="310" class="sans" font-size="30" font-weight="800" fill="#26231D">День</text>

  <!-- stat tiles row -->
  <rect x="84" y="376" width="110" height="92" rx="14" fill="#C1633D"/>
  <rect x="86" y="458" width="106" height="8" rx="4" fill="#96492B"/>
  <rect x="131" y="401" width="3" height="6" fill="#FBF3E4"/><rect x="137.5" y="397" width="3" height="10" fill="#FBF3E4"/><rect x="144" y="393" width="3" height="14" fill="#FBF3E4"/>
  <text x="139" y="434" class="sans" font-size="17" font-weight="800" text-anchor="middle" fill="#FBF3E4">6 дней</text>
  <text x="139" y="451" class="sans" font-size="9" font-weight="700" letter-spacing="1" text-anchor="middle" fill="#FBF3E4" opacity="0.9">СЕРИЯ</text>

  <rect x="200" y="376" width="110" height="92" rx="14" fill="#5C7A5E"/>
  <rect x="202" y="458" width="106" height="8" rx="4" fill="#44594A"/>
  <circle cx="255" cy="401" r="9" fill="none" stroke="#FBF3E4" stroke-width="1.6"/>
  <path d="M250,403 L255,395 L260,403" fill="none" stroke="#FBF3E4" stroke-width="1.8" stroke-linecap="round" stroke-linejoin="round"/>
  <text x="255" y="434" class="sans" font-size="17" font-weight="800" text-anchor="middle" fill="#FBF3E4">17 из 18</text>
  <text x="255" y="451" class="sans" font-size="9" font-weight="700" letter-spacing="0.5" text-anchor="middle" fill="#FBF3E4" opacity="0.9">ЛУЧШИЙ ДЕНЬ</text>

  <rect x="316" y="376" width="110" height="92" rx="14" fill="#C79A3C"/>
  <rect x="318" y="458" width="106" height="8" rx="4" fill="#A67D2A"/>
  <rect x="364" y="393" width="5" height="5" fill="#FBF3E4"/><rect x="373" y="393" width="5" height="5" fill="#FBF3E4"/>
  <rect x="364" y="402" width="5" height="5" fill="#FBF3E4"/><rect x="373" y="402" width="5" height="5" fill="#FBF3E4"/>
  <text x="371" y="434" class="sans" font-size="17" font-weight="800" text-anchor="middle" fill="#FBF3E4">23</text>
  <text x="371" y="451" class="sans" font-size="9" font-weight="700" letter-spacing="0.5" text-anchor="middle" fill="#FBF3E4" opacity="0.9">СЫГРАНО ДНЕЙ</text>

  <!-- today preview pips -->
  <text x="84" y="512" class="sans" font-size="13" fill="#26231D" opacity="0.68">Сегодня: 3 задания</text>
  <polygon points="100,531 112.99,538.5 112.99,553.5 100,561 87.01,553.5 87.01,538.5" fill="none" stroke="#26231D" stroke-opacity="0.35" stroke-width="1.5"/>
  <polygon points="140,531 152.99,538.5 152.99,553.5 140,561 127.01,553.5 127.01,538.5" fill="none" stroke="#26231D" stroke-opacity="0.35" stroke-width="1.5"/>
  <polygon points="180,531 192.99,538.5 192.99,553.5 180,561 167.01,553.5 167.01,538.5" fill="none" stroke="#26231D" stroke-opacity="0.35" stroke-width="1.5"/>

  <!-- CTA -->
  <rect x="84" y="910" width="342" height="56" rx="16" fill="#2F4B44"/>
  <rect x="88" y="954" width="334" height="8" rx="4" fill="#223732"/>
  <text x="255" y="944" class="sans" font-size="18" font-weight="800" text-anchor="middle" fill="#FBF3E4">Играть</text>
</g>

<!-- ============ PUZZLE PHONE ============ -->
<rect x="490" y="150" width="390" height="844" rx="28" fill="#F3ECDF" stroke="#26231D" stroke-opacity="0.2" stroke-width="1.5"/>
<g clip-path="url(#c-puzzle-clip)">
  <circle cx="532" cy="194" r="18" fill="#EDE3D2"/>
  <use href="#c-icon-back" x="520" y="182"/>
  <text x="562" y="200" class="sans" font-size="17" font-weight="800" fill="#26231D">Задание 1 из 3</text>
  <rect x="752" y="180" width="104" height="28" rx="10" fill="#C1633D"/>
  <use href="#c-icon-mountain" x="764" y="189"/>
  <text x="784" y="198" class="sans" font-size="11" font-weight="800" fill="#FFFFFF">География</text>
  <rect x="514" y="222" width="46" height="4" rx="2" fill="#C1633D"/>

  <text x="514" class="sans" font-size="21" font-weight="800" fill="#26231D">
    <tspan x="514" y="250">Расположите вершины</tspan>
    <tspan x="514" y="282">от самой низкой к</tspan>
    <tspan x="514" y="314">самой высокой</tspan>
  </text>

  <rect x="514" y="336" width="300" height="30" rx="10" fill="#E3E9DD" stroke="#5C7A5E" stroke-opacity="0.5"/>
  <text x="530" y="356" class="sans" font-size="13" font-weight="700" fill="#3E5C50">Сверху — самая низкая</text>

  <!-- Card 1: Килиманджаро (up disabled) -->
  <rect x="514" y="376" width="342" height="118" rx="16" fill="#FBF3E4"/>
  <circle cx="542" cy="435" r="18" fill="#26231D"/>
  <text x="542" y="441" class="sans" font-size="16" font-weight="800" text-anchor="middle" fill="#FBF3E4">1</text>
  <text x="580" y="426" class="sans" font-size="20" font-weight="800" fill="#26231D">Килиманджаро</text>
  <text x="580" y="448" class="sans" font-size="13" fill="#26231D" opacity="0.65">Танзания</text>
  <rect x="764" y="381" width="48" height="48" rx="10" fill="none" stroke="#26231D" stroke-opacity="0.16"/>
  <use href="#c-icon-chev-up" x="776" y="393" opacity="0.3"/>
  <rect x="764" y="441" width="48" height="48" rx="10" fill="#EDE3D2"/>
  <use href="#c-icon-chev-down" x="776" y="453" opacity="0.9"/>
  <rect x="822" y="376" width="34" height="118" rx="12" fill="#EDE3D2"/>
  <use href="#c-icon-grip-v" x="839" y="435"/>

  <!-- Card 2: Аконкагуа -->
  <rect x="514" y="510" width="342" height="118" rx="16" fill="#FBF3E4"/>
  <circle cx="542" cy="569" r="18" fill="#26231D"/>
  <text x="542" y="575" class="sans" font-size="16" font-weight="800" text-anchor="middle" fill="#FBF3E4">2</text>
  <text x="580" y="560" class="sans" font-size="20" font-weight="800" fill="#26231D">Аконкагуа</text>
  <text x="580" y="582" class="sans" font-size="13" fill="#26231D" opacity="0.65">Анды, Аргентина</text>
  <rect x="764" y="515" width="48" height="48" rx="10" fill="#EDE3D2"/>
  <use href="#c-icon-chev-up" x="776" y="527" opacity="0.9"/>
  <rect x="764" y="575" width="48" height="48" rx="10" fill="#EDE3D2"/>
  <use href="#c-icon-chev-down" x="776" y="587" opacity="0.9"/>
  <rect x="822" y="510" width="34" height="118" rx="12" fill="#EDE3D2"/>
  <use href="#c-icon-grip-v" x="839" y="569"/>

  <!-- Card 3: Эльбрус -->
  <rect x="514" y="644" width="342" height="118" rx="16" fill="#FBF3E4"/>
  <circle cx="542" cy="703" r="18" fill="#26231D"/>
  <text x="542" y="709" class="sans" font-size="16" font-weight="800" text-anchor="middle" fill="#FBF3E4">3</text>
  <text x="580" y="694" class="sans" font-size="20" font-weight="800" fill="#26231D">Эльбрус</text>
  <text x="580" y="716" class="sans" font-size="13" fill="#26231D" opacity="0.65">Кавказ, Россия</text>
  <rect x="764" y="649" width="48" height="48" rx="10" fill="#EDE3D2"/>
  <use href="#c-icon-chev-up" x="776" y="661" opacity="0.9"/>
  <rect x="764" y="709" width="48" height="48" rx="10" fill="#EDE3D2"/>
  <use href="#c-icon-chev-down" x="776" y="721" opacity="0.9"/>
  <rect x="822" y="644" width="34" height="118" rx="12" fill="#EDE3D2"/>
  <use href="#c-icon-grip-v" x="839" y="703"/>

  <!-- Card 4: Монблан (down disabled) -->
  <rect x="514" y="778" width="342" height="118" rx="16" fill="#FBF3E4"/>
  <circle cx="542" cy="837" r="18" fill="#26231D"/>
  <text x="542" y="843" class="sans" font-size="16" font-weight="800" text-anchor="middle" fill="#FBF3E4">4</text>
  <text x="580" y="828" class="sans" font-size="20" font-weight="800" fill="#26231D">Монблан</text>
  <text x="580" y="850" class="sans" font-size="13" fill="#26231D" opacity="0.65">Альпы, Франция и Италия</text>
  <rect x="764" y="783" width="48" height="48" rx="10" fill="#EDE3D2"/>
  <use href="#c-icon-chev-up" x="776" y="795" opacity="0.9"/>
  <rect x="764" y="843" width="48" height="48" rx="10" fill="none" stroke="#26231D" stroke-opacity="0.16"/>
  <use href="#c-icon-chev-down" x="776" y="855" opacity="0.3"/>
  <rect x="822" y="778" width="34" height="118" rx="12" fill="#EDE3D2"/>
  <use href="#c-icon-grip-v" x="839" y="837"/>

  <!-- CTA -->
  <rect x="514" y="910" width="342" height="56" rx="16" fill="#2F4B44"/>
  <rect x="518" y="954" width="334" height="8" rx="4" fill="#223732"/>
  <text x="685" y="944" class="sans" font-size="18" font-weight="800" text-anchor="middle" fill="#FBF3E4">Проверить</text>
</g>

<!-- ============ RIGHT COLUMN ============ -->
<text x="940" y="164" class="sans" font-size="13" font-weight="700" letter-spacing="2" fill="#26231D" opacity="0.6">ПАЛИТРА</text>
<rect x="940" y="176" width="70" height="70" rx="12" fill="#F3ECDF" stroke="#26231D" stroke-opacity="0.2"/>
<text x="975" y="262" class="sans" font-size="10" text-anchor="middle" fill="#26231D" opacity="0.6">#F3ECDF</text>
<rect x="1022" y="176" width="70" height="70" rx="12" fill="#C1633D"/>
<text x="1057" y="262" class="sans" font-size="10" text-anchor="middle" fill="#26231D" opacity="0.6">#C1633D</text>
<rect x="1104" y="176" width="70" height="70" rx="12" fill="#5C7A5E"/>
<text x="1139" y="262" class="sans" font-size="10" text-anchor="middle" fill="#26231D" opacity="0.6">#5C7A5E</text>
<rect x="1186" y="176" width="70" height="70" rx="12" fill="#C79A3C"/>
<text x="1221" y="262" class="sans" font-size="10" text-anchor="middle" fill="#26231D" opacity="0.6">#C79A3C</text>
<rect x="1268" y="176" width="70" height="70" rx="12" fill="#2F4B44"/>
<text x="1303" y="262" class="sans" font-size="10" text-anchor="middle" fill="#26231D" opacity="0.6">#2F4B44</text>

<text x="940" y="296" class="sans" font-size="13" font-weight="700" letter-spacing="2" fill="#26231D" opacity="0.6">ТИПОГРАФИКА</text>
<text x="960" y="318" class="sans" font-size="11" letter-spacing="1" fill="#26231D" opacity="0.5">DISPLAY / BOLD SANS</text>
<text x="960" y="352" class="sans" font-size="32" font-weight="800" fill="#26231D">Килиманджаро</text>
<text x="960" y="376" class="sans" font-size="11" letter-spacing="1" fill="#26231D" opacity="0.5">ЗАГОЛОВОК</text>
<text x="960" y="400" class="sans" font-size="22" font-weight="800" fill="#26231D">Расположите по высоте</text>
<text x="960" y="424" class="sans" font-size="11" letter-spacing="1" fill="#26231D" opacity="0.5">ТЕКСТ</text>
<text x="960" y="446" class="sans" font-size="16" fill="#26231D">Объяснение читается спокойно, без ёрничества.</text>
<text x="960" y="470" class="sans" font-size="11" letter-spacing="1" fill="#26231D" opacity="0.5">МЕТКА</text>
<text x="960" y="488" class="sans" font-size="12" font-weight="800" letter-spacing="1" fill="#26231D">НАПРАВЛЕНИЕ СОРТИРОВКИ</text>

<text x="940" y="518" class="sans" font-size="13" font-weight="700" letter-spacing="2" fill="#26231D" opacity="0.6">ФОРМЫ</text>
<text x="960" y="540" class="sans" font-size="11" fill="#26231D" opacity="0.5">Кнопка/фишка — rx16 + нижняя фаска (не pill)</text>
<rect x="960" y="550" width="200" height="48" rx="16" fill="#2F4B44"/>
<rect x="964" y="588" width="192" height="6" rx="3" fill="#223732"/>
<text x="1060" y="580" class="sans" font-size="15" font-weight="800" text-anchor="middle" fill="#FBF3E4">Проверить</text>
<text x="960" y="626" class="sans" font-size="11" fill="#26231D" opacity="0.5">Маркер позиции и тег категории</text>
<circle cx="980" cy="654" r="18" fill="#26231D"/>
<text x="980" y="660" class="sans" font-size="16" font-weight="800" text-anchor="middle" fill="#FBF3E4">1</text>
<rect x="1020" y="640" width="120" height="28" rx="10" fill="#C1633D"/>
<text x="1080" y="659" class="sans" font-size="11" font-weight="800" text-anchor="middle" fill="#FFFFFF">География</text>

<!-- Dark theme fragment -->
<text x="940" y="700" class="sans" font-size="13" font-weight="700" letter-spacing="2" fill="#26231D" opacity="0.6">ТЁМНАЯ ТЕМА (фрагмент Home)</text>
<rect x="940" y="712" width="460" height="282" rx="20" fill="#201C16"/>
<text x="964" y="742" class="sans" font-size="18" font-weight="800" fill="#EFE6D3">По порядку!</text>
<text x="964" y="766" class="sans" font-size="12" fill="#EFE6D3" opacity="0.7">Суббота, 29 августа 2026</text>
<polygon points="1000,788 1029.4,805 1029.4,839 1000,856 970.6,839 970.6,805" fill="#A67D2A"/>
<text x="1000" y="830" class="sans" font-size="26" font-weight="800" text-anchor="middle" fill="#26231D">1</text>
<text x="1044" y="828" class="sans" font-size="20" font-weight="800" fill="#EFE6D3">День</text>
<rect x="964" y="868" width="120" height="60" rx="12" fill="#96492B"/>
<rect x="968" y="916" width="112" height="6" rx="3" fill="#6E3220"/>
<text x="1024" y="896" class="sans" font-size="14" font-weight="800" text-anchor="middle" fill="#FBF3E4">6 дней</text>
<text x="1024" y="910" class="sans" font-size="8" font-weight="700" letter-spacing="1" text-anchor="middle" fill="#FBF3E4" opacity="0.9">СЕРИЯ</text>
<rect x="964" y="940" width="412" height="40" rx="14" fill="#3E645B"/>
<rect x="968" y="970" width="404" height="6" rx="3" fill="#213631"/>
<text x="1170" y="965" class="sans" font-size="14" font-weight="800" text-anchor="middle" fill="#EFE6D3">Играть</text>

<!-- Footer caption -->
<text x="60" y="1032" class="sans" font-size="13" font-weight="700" letter-spacing="2" fill="#26231D" opacity="0.55">ИДЕЯ КОНЦЕПЦИИ</text>
<text x="60" y="1058" class="sans" font-size="16" fill="#26231D">Тёплая настольная игра — интерфейс подан как хорошо изданная взрослая настольная игра: плотные цветные</text>
<text x="60" y="1084" class="sans" font-size="16" fill="#26231D">фишки, круглые маркеры позиции и фаска на кнопках — тактильность вечера за столом, а не казино или обучалки.</text>
</svg>
